<?xml version="1.0" standalone="no"?>
<!DOCTYPE svg PUBLIC "-//W3C//DTD SVG 20010904//EN"
 "http://www.w3.org/TR/2001/REC-SVG-20010904/DTD/svg10.dtd">
<svg version="1.0" xmlns="http://www.w3.org/2000/svg"
 width="1024.000000pt" height="1024.000000pt" viewBox="0 0 1024.000000 1024.000000"
 preserveAspectRatio="xMidYMid meet">
<metadata>
Created by potrace 1.14, written by Peter Selinger 2001-2017
</metadata>
<g transform="translate(0.000000,1024.000000) scale(0.100000,-0.100000)"
fill="#000000" stroke="none">
<path d="M1869 10236 c-2 -2 -29 -7 -59 -10 -218 -21 -490 -103 -702 -213 -85
-44 -291 -175 -321 -205 -8 -7 -32 -26 -53 -43 -62 -48 -216 -206 -284 -291
-189 -237 -326 -516 -394 -805 -24 -101 -30 -130 -46 -254 -5 -33 -8 -1520 -9
-3305 0 -2652 3 -3260 14 -3325 7 -44 16 -96 19 -115 29 -174 112 -410 207
-589 200 -375 529 -692 909 -873 109 -52 142 -67 165 -74 6 -2 42 -14 80 -28
62 -21 162 -50 220 -62 11 -2 31 -6 45 -9 151 -33 177 -34 3495 -32 1793 2
3278 6 3300 10 22 4 51 9 65 12 14 3 39 7 55 10 504 85 1011 418 1313 862 132
194 262 489 298 676 2 10 5 26 8 35 6 19 12 55 22 121 4 25 9 55 13 66 9 31
11 6552 1 6620 -5 33 -11 81 -15 108 -8 65 -51 237 -82 327 -142 423 -428 793
-810 1051 -93 63 -298 169 -383 199 -36 12 -73 27 -82 32 -26 13 -276 75 -333
83 -27 3 -77 10 -110 15 -58 8 -6537 14 -6546 6z"/>
</g>
</svg>
